<?xml version="1.0" encoding="utf-8"?>
<!-- Generator: Adobe Illustrator 19.2.0, SVG Export Plug-In . SVG Version: 6.00 Build 0)  -->
<svg version="1.1" xmlns="http://www.w3.org/2000/svg" xmlns:xlink="http://www.w3.org/1999/xlink" x="0px" y="0px"
	 viewBox="0 0 340.3 182.7" style="enable-background:new 0 0 340.3 182.7;" xml:space="preserve">
<style type="text/css">
	.st0{display:none;}
	.st1{display:inline;}
	.st2{fill:url(#SVGID_1_);}
	.st3{fill:url(#SVGID_2_);}
	.st4{fill:url(#SVGID_3_);}
	.st5{fill:#FFC925;}
</style>
<g id="Layer_1" class="st0">
	<g class="st1">
	</g>
</g>
<g id="Layer_3">
</g>
<g id="Layer_4">
</g>
<g id="Layer_2">
	<g>
		<linearGradient id="SVGID_1_" gradientUnits="userSpaceOnUse" x1="0" y1="91.3333" x2="182.6667" y2="91.3333">
			<stop  offset="0.5" style="stop-color:#FFD03F"/>
			<stop  offset="0.5" style="stop-color:#FFC925"/>
		</linearGradient>
		<path class="st2" d="M90,182.7c-5.4,0-10.9-2.1-15-6.4l-69.2-72C-2.2,96.1-1.9,82.9,6.4,75l72-69.2c4-3.9,9.2-5.8,14.4-5.8
			c5.4,0,10.9,2.1,15,6.4l69.2,72c7.9,8.3,7.7,21.4-0.6,29.4l-72,69.2C100.3,180.7,95.1,182.7,90,182.7z"/>
		<linearGradient id="SVGID_2_" gradientUnits="userSpaceOnUse" x1="303.3226" y1="114.3333" x2="327.3226" y2="114.3333">
			<stop  offset="0.5" style="stop-color:#FFD03F"/>
			<stop  offset="0.5" style="stop-color:#FFC925"/>
		</linearGradient>
		<path class="st3" d="M327.3,142.3c0,6.6-5.4,12-12,12h0c-6.6,0-12-5.4-12-12v-56c0-6.6,5.4-12,12-12h0c6.6,0,12,5.4,12,12V142.3z"
			/>
		<linearGradient id="SVGID_3_" gradientUnits="userSpaceOnUse" x1="267.3226" y1="114.3333" x2="291.3226" y2="114.3333">
			<stop  offset="0.5" style="stop-color:#FFD03F"/>
			<stop  offset="0.5" style="stop-color:#FFC925"/>
		</linearGradient>
		<path class="st4" d="M291.3,142.3c0,6.6-5.4,12-12,12h0c-6.6,0-12-5.4-12-12v-56c0-6.6,5.4-12,12-12h0c6.6,0,12,5.4,12,12V142.3z"
			/>
		<path class="st5" d="M340.3,92.3c0,8.8-7.2,16-16,16h-206c-8.8,0-16-7.2-16-16v-2c0-8.8,7.2-16,16-16h206c8.8,0,16,7.2,16,16V92.3
			z"/>
	</g>
</g>
<g id="Layer_5" class="st0">
</g>
</svg>
